<?xml version="1.0" encoding="utf-8"?>
<svg xmlns="http://www.w3.org/2000/svg" viewBox="-390.9898 -608.5591 1080.4237 1084.8153" width="1080.42px" height="1084.82px" preserveAspectRatio="none"><g id="object-3"><g transform="matrix(0.1, 0, 0, -0.1, -392.200961, 476.253818)" fill="#000000" stroke="none" id="object-2"><path d="M 5165 10839 C 4545 10804 3959 10679 3440 10470 C 3382 10447 3313 10419 3285 10408 C 3183 10368 2811 10179 2675 10098 C 2248 9842 1940 9602 1590 9251 C 1258 8918 1009 8599 773 8205 C 665 8024 525 7754 465 7610 C 450 7574 430 7527 420 7505 C 391 7440 305 7204 266 7085 C 156 6742 71 6340 34 5986 C 4 5694 5 5132 36 4850 C 147 3856 507 2942 1099 2155 C 1261 1940 1400 1780 1605 1577 C 2452 735 3535 204 4730 46 C 5233 -21 5696 -15 6226 65 C 7049 190 7842 511 8535 999 C 9174 1450 9708 2039 10110 2739 C 10181 2862 10279 3056 10360 3235 C 10562 3679 10718 4259 10785 4810 C 10823 5123 10827 5598 10794 5940 C 10660 7345 9969 8668 8905 9561 C 8223 10133 7456 10517 6610 10709 C 6293 10781 5984 10822 5620 10840 C 5394 10851 5368 10851 5165 10839 Z"/><g transform="matrix(1, 0, 0, 1, 22.744, 134.315003)" fill="#000000" stroke="none" id="object-1"><path d="M2673 7675 c-48 -21 -119 -91 -155 -154 -30 -51 -33 -63 -33 -141 0 -101 29 -187 85 -253 32 -38 231 -177 254 -177 33 0 -68 -46 -539 -245 -211 -89 -846 -359 -1041 -442 -131 -55 -139 -69 -174 -303 -11 -74 -49 -328 -85 -565 -36 -236 -79 -518 -96 -625 -16 -107 -34 -220 -39 -250 -52 -298 -120 -792 -115 -827 12 -85 94 -141 220 -150 87 -7 130 6 174 51 l33 34 24 209 c13 114 35 305 49 423 13 118 36 314 50 435 14 121 41 357 60 525 46 392 63 545 71 598 l5 43 232 116 c128 63 293 141 367 173 122 52 675 284 1180 495 163 68 199 80 220 73 126 -48 485 -171 550 -188 44 -12 44 -12 24 -29 -24 -20 -220 -99 -439 -177 -134 -48 -166 -64 -197 -96 -20 -20 -38 -48 -40 -60 -2 -13 6 -77 18 -143 12 -66 38 -210 58 -320 20 -110 48 -261 61 -335 14 -74 38 -209 55 -300 47 -255 137 -752 180 -992 43 -238 53 -269 99 -313 30 -28 39 -30 116 -34 73 -3 91 0 139 22 79 37 116 96 116 186 0 37 -9 109 -20 161 -38 187 -146 746 -305 1585 -19 99 -37 194 -41 211 -4 20 -1 34 9 42 14 12 453 172 470 172 23 0 51 -29 372 -390 66 -74 122 -137 125 -140 3 -3 38 -42 78 -87 l73 -82 10 -333 c5 -183 15 -524 22 -758 12 -420 13 -426 36 -464 32 -51 87 -75 169 -76 93 0 147 16 182 56 16 19 32 45 36 59 3 13 -1 212 -10 442 -9 230 -16 436 -15 458 0 42 1 41 124 -280 19 -49 59 -153 89 -230 29 -77 111 -288 181 -470 69 -181 156 -406 192 -500 36 -93 76 -204 88 -246 42 -145 88 -179 241 -179 123 0 174 21 206 83 39 77 28 114 -166 566 -96 223 -293 686 -440 1028 l-265 621 -116 175 c-63 97 -115 180 -115 185 0 6 64 50 143 98 78 48 187 115 242 149 330 204 297 186 320 166 11 -10 72 -62 135 -117 63 -54 133 -115 155 -135 22 -20 52 -47 67 -60 18 -16 37 -57 61 -129 20 -58 79 -231 132 -385 53 -154 147 -428 210 -610 62 -181 160 -467 218 -635 58 -168 122 -354 143 -415 20 -60 44 -120 51 -132 23 -34 75 -47 167 -39 96 8 147 30 160 68 11 30 -19 123 -548 1693 l-246 730 -42 39 c-175 160 -326 306 -320 309 4 3 129 8 278 12 l271 7 54 -45 c30 -25 150 -117 267 -204 1123 -835 1203 -897 1353 -1050 136 -139 138 -141 445 -583 149 -215 352 -510 431 -624 121 -177 158 -223 193 -241 21 -11 60 -15 138 -15 97 0 113 3 143 23 72 48 75 96 15 210 -60 113 -890 1355 -930 1390 -17 15 -134 106 -261 202 -126 95 -357 269 -512 387 -155 117 -406 307 -558 423 l-277 209 95 32 c125 42 202 86 319 183 146 121 176 172 165 285 -10 93 -23 127 -72 183 -73 83 -96 88 -425 87 -244 0 -325 -5 -715 -43 -242 -23 -507 -46 -590 -52 -217 -15 -584 -3 -870 28 -207 22 -276 34 -500 89 -415 100 -917 253 -1208 368 -128 51 -530 189 -720 247 -139 42 -217 49 -274 24z m2377 -1374 c180 -25 321 -37 590 -54 l35 -2 -60 -34 c-33 -19 -96 -55 -140 -81 -44 -26 -153 -89 -243 -139 l-163 -93 -42 38 c-74 66 -348 336 -344 340 5 6 131 53 142 54 5 0 106 -13 225 -29z" style="fill: rgb(202, 233, 117);"/></g><g fill="#000000" stroke="none" id="object-0"><path d="M5165 10839 c-620 -35 -1206 -160 -1725 -369 -58 -23 -127 -51 -155 -62 -102 -40 -474 -229 -610 -310 -427 -256 -735 -496 -1085 -847 -332 -333 -581 -652 -817 -1046 -108 -181 -248 -451 -308 -595 -15 -36 -35 -83 -45 -105 -29 -65 -115 -301 -154 -420 -110 -343 -195 -745 -232 -1099 -30 -292 -29 -854 2 -1136 111 -994 471 -1908 1063 -2695 162 -215 301 -375 506 -578 847 -842 1930 -1373 3125 -1531 503 -67 966 -61 1496 19 823 125 1616 446 2309 934 639 451 1173 1040 1575 1740 71 123 169 317 250 496 202 444 358 1024 425 1575 38 313 42 788 9 1130 -134 1405 -825 2728 -1889 3621 -682 572 -1449 956 -2295 1148 -317 72 -626 113 -990 131 -226 11 -252 11 -455 -1z m527 -359 c744 -50 1387 -225 2018 -548 1183 -607 2074 -1647 2494 -2914 187 -564 265 -1088 253 -1702 -10 -495 -70 -880 -217 -1382 -90 -305 -128 -404 -270 -689 -292 -589 -576 -991 -992 -1407 -981 -978 -2308 -1510 -3678 -1475 -533 14 -1001 95 -1480 256 -988 333 -1822 936 -2455 1776 -494 656 -832 1480 -955 2325 -123 852 -7 1795 317 2590 430 1055 1153 1897 2128 2479 152 91 501 264 668 331 692 277 1471 406 2169 360z" style="fill: rgb(202, 233, 117);"/></g></g></g></svg>